<svg xmlns="http://www.w3.org/2000/svg" width="50.734" height="58" viewBox="0 0 50.734 58">
  <g id="XMLID_1068_" transform="translate(-20)">
    <path id="XMLID_1069_" d="M193.624,107.248,190,100h7.248Z" transform="translate(-139.197 -81.881)" fill="#0052b4"/>
    <rect id="XMLID_1070_" width="14" height="7" transform="translate(47 11)" fill="#ffda44"/>
    <path id="XMLID_37_" d="M72.372,77.9l-6.7-2.763L70.08,59.864l7.429-.03Z" transform="translate(-37.397 -48.993)" fill="#006df0"/>
    <path id="XMLID_1071_" d="M62.683,139.025a6.342,6.342,0,0,1-6.342,6.342h0A6.342,6.342,0,0,1,50,139.025V126.342A6.342,6.342,0,0,1,56.342,120h0a6.342,6.342,0,0,1,6.342,6.342Z" transform="translate(-24.564 -98.257)" fill="#0052b4"/>
    <rect id="XMLID_1072_" width="25" height="8" transform="translate(20 50)" fill="#0052b4"/>
    <rect id="XMLID_1073_" width="25" height="8" transform="translate(45 50)" fill="#006df0"/>
    <rect id="XMLID_1074_" width="13" height="11" transform="translate(25 44)" fill="#0052b4"/>
    <path id="XMLID_1075_" d="M70.734,190H20v9.06H65.3l5.436-3.624Z" transform="translate(0 -155.573)" fill="#ffda44"/>
    <path id="XMLID_1076_" d="M90,10.872h32.615V3.624L118.991,0H93.624L90,3.624Z" transform="translate(-57.317)" fill="#78b9eb"/>
  </g>
</svg>
