<svg id="city-nature-svgrepo-com" xmlns="http://www.w3.org/2000/svg" width="512" height="512" viewBox="0 0 512 512">
  <circle id="Ellipse_30" data-name="Ellipse 30" cx="256" cy="256" r="256" fill="#dff1ff"/>
  <path id="Tracé_92" data-name="Tracé 92" d="M511.863,248a255.452,255.452,0,0,0-11.644-68.962C483.342,172.012,453.662,160,448,160c-8,0-48,24-56,24s-88-48-96-48-56,24-64,24-24-16-40-16-56.129,30.569-64,32c-11,2-40-16-56-16-11.373,0-42.935,12.118-60.25,19.131A255.465,255.465,0,0,0,.137,248Z" fill="#c4e2e4"/>
  <path id="Tracé_93" data-name="Tracé 93" d="M272,240c-8,0-80-32-88-32s-32,16-40,16-48-24-64-24c-11.043,0-52.569,11.431-77.241,18.515A257.97,257.97,0,0,0,0,256c0,5.379.221,10.7.548,16h510.9c.327-5.3.548-10.621.548-16,0-7.059-.363-14.03-.924-20.945C475.469,228.03,413.666,216,408,216,400,216,280,240,272,240Z" fill="#8ac5ca"/>
  <path id="Tracé_94" data-name="Tracé 94" d="M499.18,336A255.62,255.62,0,0,0,512,256H0a255.62,255.62,0,0,0,12.82,80Z" fill="#6db195"/>
  <g id="Groupe_784" data-name="Groupe 784">
    <rect id="Rectangle_248" data-name="Rectangle 248" width="4.706" height="56.47" transform="translate(139.76 136)" fill="#f5f0f0"/>
    <rect id="Rectangle_249" data-name="Rectangle 249" width="9.412" height="84.71" transform="translate(137.41 211.29)" fill="#f5f0f0"/>
  </g>
  <g id="Groupe_785" data-name="Groupe 785">
    <rect id="Rectangle_250" data-name="Rectangle 250" width="11.593" height="11.361" transform="translate(136.32 201.88)" fill="#b4b9c8"/>
    <path id="Tracé_95" data-name="Tracé 95" d="M145.261,178.353h-6.287l-3.915,23.529h14.117Z" fill="#b4b9c8"/>
  </g>
  <path id="Tracé_96" data-name="Tracé 96" d="M156.235,192H128v9.882L136,208h12l8.235-6.118Z" fill="#f09b8c"/>
  <rect id="Rectangle_251" data-name="Rectangle 251" width="80" height="72" transform="translate(344 248)" fill="#faf0dc"/>
  <path id="Tracé_97" data-name="Tracé 97" d="M464,384h13.667A254.718,254.718,0,0,0,512,256H464Z" fill="#b4b9c8"/>
  <rect id="Rectangle_252" data-name="Rectangle 252" width="72" height="64" transform="translate(112 272)" fill="#aa9191"/>
  <rect id="Rectangle_253" data-name="Rectangle 253" width="40" height="96" transform="translate(88 264)" fill="#aac3dc"/>
  <rect id="Rectangle_254" data-name="Rectangle 254" width="32" height="96" transform="translate(40 264)" fill="#f0cdb4"/>
  <rect id="Rectangle_255" data-name="Rectangle 255" width="48" height="96" transform="translate(136 280)" fill="#82a5cd"/>
  <rect id="Rectangle_256" data-name="Rectangle 256" width="48" height="48" transform="translate(224 248)" fill="#b4b9c8"/>
  <rect id="Rectangle_257" data-name="Rectangle 257" width="56" height="120" transform="translate(176 216)" fill="#faf0dc"/>
  <rect id="Rectangle_258" data-name="Rectangle 258" width="72" height="48" transform="translate(152 320)" fill="#fff"/>
  <rect id="Rectangle_259" data-name="Rectangle 259" width="48" height="88" transform="translate(224 280)" fill="#968282"/>
  <path id="Tracé_98" data-name="Tracé 98" d="M496,345.2V272H456V415.712A255.52,255.52,0,0,0,496,345.2Z" fill="#aa9191"/>
  <rect id="Rectangle_260" data-name="Rectangle 260" width="64" height="144" transform="translate(408 232)" fill="#82a5cd"/>
  <rect id="Rectangle_261" data-name="Rectangle 261" width="40" height="120" transform="translate(352 280)" fill="#aa9191"/>
  <rect id="Rectangle_262" data-name="Rectangle 262" width="56" height="120" transform="translate(384 264)" fill="#ebe1c3"/>
  <rect id="Rectangle_263" data-name="Rectangle 263" width="40" height="168" transform="translate(320 216)" fill="#b4b9c8"/>
  <rect id="Rectangle_264" data-name="Rectangle 264" width="64" height="216" transform="translate(264 176)" fill="#82a5cd"/>
  <rect id="Rectangle_265" data-name="Rectangle 265" width="72" height="48" transform="translate(288 336)" fill="#fff"/>
  <path id="Tracé_99" data-name="Tracé 99" d="M25.764,368C67.312,453.248,154.786,512,256,512s188.688-58.752,230.236-144Z" fill="#73be6e"/>
  <path id="Tracé_100" data-name="Tracé 100" d="M224.631,509.95c-39.3-28.617-37.3-49.95-16.631-63.283,26.543-17.124,78.019-13.552,104-38.667,20-19.333,83-24,165.7-23.989q4.536-7.839,8.537-16.011H25.764A256.117,256.117,0,0,0,224.631,509.95Z" fill="#6eaa64"/>
  <rect id="Rectangle_266" data-name="Rectangle 266" width="32" height="40" transform="translate(240 328)" fill="#faf0dc"/>
  <rect id="Rectangle_267" data-name="Rectangle 267" width="32" height="40" transform="translate(112 320)" fill="#f0cdb4"/>
  <rect id="Rectangle_268" data-name="Rectangle 268" width="40" height="72" transform="translate(64 288)" fill="#faf0dc"/>
  <path id="Tracé_101" data-name="Tracé 101" d="M22.086,360H48V296H3.131A254.021,254.021,0,0,0,22.086,360Z" fill="#b4b9c8"/>
  <path id="Tracé_102" data-name="Tracé 102" d="M455.707,415.978c-35.707-1.978-75.949,2.393-97.04,7.355C330.333,430,326,443.667,288,453.333c-39.516,10.052-30.517,39.857-7.563,57.373A255.41,255.41,0,0,0,455.707,415.978Z" fill="#6eaa64"/>
  <g id="Groupe_786" data-name="Groupe 786">
    <path id="Tracé_103" data-name="Tracé 103" d="M209.368,392h89.3S293.5,367,254,367c0,0-20-17-43-9.5,0,0-8.5-7-27.5-1.5,0,0-22-6.5-40.5,4.5,0,0-10.5-10-24-5.5,0,0-21.5-5-33.5,4.5,0,0-12.5-12.5-38.5-9.5,0,0-14.341-9.686-32.372-8.655A254.821,254.821,0,0,0,39.147,392H70.518A13.711,13.711,0,0,0,64,403.655h51.1A19.49,19.49,0,0,0,111.2,392H162.6c-.052.072-.119.132-.169.206a19.558,19.558,0,0,0-12.47,6.137A13.609,13.609,0,0,0,132.9,411.655H184A19.49,19.49,0,0,0,180.094,400H211.1A19.525,19.525,0,0,0,209.368,392Z" fill="#558c73"/>
    <path id="Tracé_104" data-name="Tracé 104" d="M492.684,353.613C456,344,421.828,352.534,421.828,352.534c-24.616-3.956-46.022,5.011-46.022,5.011-42.276,0-47.8,13.188-47.8,13.188H484.836C487.648,365.136,490.28,359.435,492.684,353.613Z" fill="#558c73"/>
  </g>
</svg>
