<svg xmlns="http://www.w3.org/2000/svg" width="765.33" height="187" viewBox="0 0 765.33 187">
  <g id="Groupe_958" data-name="Groupe 958" transform="translate(-558.67 -492)">
    <text id="Mask_L" data-name="Mask L" transform="translate(1052 645)" fill="#fff" font-size="157" font-family="HelveticaNeue-Bold, Helvetica Neue" font-weight="700"><tspan x="-271.845" y="0">Mask L</tspan></text>
    <g id="Groupe_958-2" data-name="Groupe 958" transform="translate(-352.124 -46)">
      <path id="Tracé_57" data-name="Tracé 57" d="M10053.426,4770.881h10.027s.785-10.348-8.332-20.678c-3.348-3.791-10.945-9.121-16.395-11.721-17.582-9.965-45.605-7.465-45.605-7.465s1.039,38.434,18.371,69.434,50.953,54.559,50.953,54.559v-74.479s-18.1.172-23.246-3.467-6.895-4.332-10.094-10.584-2.172-9.49-4.34-14.682-5.332-6.986-5.332-6.986a115.982,115.982,0,0,1,15.113,5.391c6.148,2.9,13.578,9.4,15.934,13.014A21.469,21.469,0,0,1,10053.426,4770.881Z" transform="translate(-9082.327 -4161.273)" fill="#fff"/>
      <path id="Tracé_58" data-name="Tracé 58" d="M10003.168,4770.877h-10.027s-.781-10.344,8.332-20.676c3.352-3.789,10.945-9.117,16.395-11.715,17.582-9.967,45.605-7.469,45.605-7.469s-1.047,38.434-18.383,69.43c-17.32,31-50.941,54.555-50.941,54.555v-74.473s18.1.174,23.246-3.469,6.895-4.328,10.09-10.58,2.172-9.49,4.352-14.68,5.328-6.986,5.328-6.986a116.337,116.337,0,0,0-15.113,5.387c-6.152,2.9-13.578,9.4-15.934,13.014A21.518,21.518,0,0,0,10003.168,4770.877Z" transform="translate(-9011 -4161.226)" fill="#fff"/>
    </g>
  </g>
</svg>
