<svg id="Composant_4" data-name="Composant 4" xmlns="http://www.w3.org/2000/svg" width="145.877" height="41" viewBox="0 0 145.877 41">
  <g id="Groupe_143" data-name="Groupe 143" transform="translate(-964.123 -658)">
    <text id="Mask_L" data-name="Mask L" transform="translate(1004 689)" font-size="31" font-family="Helvetica-Bold, Helvetica" font-weight="700"><tspan x="0" y="0">Mask L</tspan></text>
    <g id="Groupe_142" data-name="Groupe 142" transform="translate(0 -2)">
      <path id="Tracé_57" data-name="Tracé 57" d="M10007.063,4740.016h2.317a7.031,7.031,0,0,0-1.926-4.78,14.332,14.332,0,0,0-3.79-2.709c-4.063-2.3-10.541-1.726-10.541-1.726s.24,8.884,4.247,16.049,11.776,12.611,11.776,12.611v-17.215s-4.183.04-5.372-.8a5.262,5.262,0,0,1-2.333-2.446c-.739-1.445-.5-2.194-1-3.394a3.383,3.383,0,0,0-1.231-1.615,26.852,26.852,0,0,1,3.492,1.246,11.078,11.078,0,0,1,3.684,3.008A4.971,4.971,0,0,1,10007.063,4740.016Z" transform="translate(-9029 -4064.724)" fill="#1b5299"/>
      <path id="Tracé_58" data-name="Tracé 58" d="M9995.445,4740.015h-2.317a7.036,7.036,0,0,1,1.926-4.779,14.36,14.36,0,0,1,3.789-2.708c4.064-2.3,10.541-1.727,10.541-1.727s-.243,8.883-4.249,16.047-11.773,12.609-11.773,12.609v-17.213s4.184.04,5.372-.8a5.274,5.274,0,0,0,2.333-2.445c.739-1.445.5-2.193,1-3.393a3.37,3.37,0,0,1,1.231-1.615,26.941,26.941,0,0,0-3.493,1.245,11.085,11.085,0,0,0-3.683,3.008A4.984,4.984,0,0,0,9995.445,4740.015Z" transform="translate(-9011 -4064.723)" fill="#136f63"/>
    </g>
  </g>
</svg>
